<?xml version="1.0" encoding="UTF-8" standalone="no"?>
<!-- Created with Inkscape (http://www.inkscape.org/) -->

<svg
   xmlns:dc="http://purl.org/dc/elements/1.1/"
   xmlns:cc="http://creativecommons.org/ns#"
   xmlns:rdf="http://www.w3.org/1999/02/22-rdf-syntax-ns#"
   xmlns:svg="http://www.w3.org/2000/svg"
   xmlns="http://www.w3.org/2000/svg"
   xmlns:sodipodi="http://sodipodi.sourceforge.net/DTD/sodipodi-0.dtd"
   xmlns:inkscape="http://www.inkscape.org/namespaces/inkscape"
   width="500"
   height="500"
   id="svg2"
   version="1.1"
   inkscape:version="0.48.5 r10040"
   sodipodi:docname="3dlimp.svg"
   inkscape:export-filename="/home/patrick/Documents/Uni/Bachelorarbeit/Thesis/images/3dlimp.png"
   inkscape:export-xdpi="199.98"
   inkscape:export-ydpi="199.98">
  <defs
     id="defs4">
    <marker
       inkscape:stockid="Arrow2Lend"
       orient="auto"
       refY="0.0"
       refX="0.0"
       id="Arrow2Lend"
       style="overflow:visible;">
      <path
         id="path5191"
         style="fill-rule:evenodd;stroke-width:0.62500000;stroke-linejoin:round;"
         d="M 8.7185878,4.0337352 L -2.2072895,0.016013256 L 8.7185884,-4.0017078 C 6.9730900,-1.6296469 6.9831476,1.6157441 8.7185878,4.0337352 z "
         transform="scale(1.1) rotate(180) translate(1,0)" />
    </marker>
    <marker
       inkscape:stockid="Arrow2Sstart"
       orient="auto"
       refY="0.0"
       refX="0.0"
       id="Arrow2Sstart"
       style="overflow:visible">
      <path
         id="path5200"
         style="fill-rule:evenodd;stroke-width:0.62500000;stroke-linejoin:round"
         d="M 8.7185878,4.0337352 L -2.2072895,0.016013256 L 8.7185884,-4.0017078 C 6.9730900,-1.6296469 6.9831476,1.6157441 8.7185878,4.0337352 z "
         transform="scale(0.3) translate(-2.3,0)" />
    </marker>
    <marker
       inkscape:stockid="Arrow2Mend"
       orient="auto"
       refY="0.0"
       refX="0.0"
       id="Arrow2Mend"
       style="overflow:visible;">
      <path
         id="path5197"
         style="fill-rule:evenodd;stroke-width:0.62500000;stroke-linejoin:round;"
         d="M 8.7185878,4.0337352 L -2.2072895,0.016013256 L 8.7185884,-4.0017078 C 6.9730900,-1.6296469 6.9831476,1.6157441 8.7185878,4.0337352 z "
         transform="scale(0.6) rotate(180) translate(0,0)" />
    </marker>
    <marker
       inkscape:stockid="Arrow2Mstart"
       orient="auto"
       refY="0.0"
       refX="0.0"
       id="Arrow2Mstart"
       style="overflow:visible">
      <path
         id="path5194"
         style="fill-rule:evenodd;stroke-width:0.62500000;stroke-linejoin:round"
         d="M 8.7185878,4.0337352 L -2.2072895,0.016013256 L 8.7185884,-4.0017078 C 6.9730900,-1.6296469 6.9831476,1.6157441 8.7185878,4.0337352 z "
         transform="scale(0.6) translate(0,0)" />
    </marker>
    <marker
       inkscape:stockid="Arrow1Lend"
       orient="auto"
       refY="0.0"
       refX="0.0"
       id="Arrow1Lend"
       style="overflow:visible;">
      <path
         id="path3784"
         d="M 0.0,0.0 L 5.0,-5.0 L -12.5,0.0 L 5.0,5.0 L 0.0,0.0 z "
         style="fill-rule:evenodd;stroke:#000000;stroke-width:1.0pt;"
         transform="scale(0.8) rotate(180) translate(12.5,0)" />
    </marker>
    <marker
       inkscape:stockid="Arrow1Lstart"
       orient="auto"
       refY="0.0"
       refX="0.0"
       id="Arrow1Lstart"
       style="overflow:visible">
      <path
         id="path3781"
         d="M 0.0,0.0 L 5.0,-5.0 L -12.5,0.0 L 5.0,5.0 L 0.0,0.0 z "
         style="fill-rule:evenodd;stroke:#000000;stroke-width:1.0pt"
         transform="scale(0.8) translate(12.5,0)" />
    </marker>
  </defs>
  <sodipodi:namedview
     id="base"
     pagecolor="#ffffff"
     bordercolor="#666666"
     borderopacity="1.0"
     inkscape:pageopacity="1"
     inkscape:pageshadow="2"
     inkscape:zoom="1.4"
     inkscape:cx="85.726942"
     inkscape:cy="246.74584"
     inkscape:document-units="px"
     inkscape:current-layer="layer1"
     showgrid="false"
     inkscape:showpageshadow="false"
     showborder="true"
     inkscape:window-width="1916"
     inkscape:window-height="1032"
     inkscape:window-x="0"
     inkscape:window-y="22"
     inkscape:window-maximized="0"
     showguides="true"
     inkscape:guide-bbox="true">
    <sodipodi:guide
       orientation="1,0"
       position="728.57143,228.57143"
       id="guide4966" />
    <sodipodi:guide
       orientation="0,1"
       position="368.57143,575"
       id="guide4968" />
    <inkscape:grid
       type="xygrid"
       id="grid3805"
       empspacing="5"
       visible="true"
       enabled="true"
       snapvisiblegridlinesonly="true" />
  </sodipodi:namedview>
  <metadata
     id="metadata7">
    <rdf:RDF>
      <cc:Work
         rdf:about="">
        <dc:format>image/svg+xml</dc:format>
        <dc:type
           rdf:resource="http://purl.org/dc/dcmitype/StillImage" />
        <dc:title></dc:title>
      </cc:Work>
    </rdf:RDF>
  </metadata>
  <g
     inkscape:label="Layer 1"
     inkscape:groupmode="layer"
     id="layer1"
     transform="translate(0,-552.36218)">
    <g
       id="g3807"
       transform="translate(-2.097281,2.09728)">
      <path
         style="font-size:medium;font-style:normal;font-variant:normal;font-weight:normal;font-stretch:normal;text-indent:0;text-align:start;text-decoration:none;line-height:normal;letter-spacing:normal;word-spacing:normal;text-transform:none;direction:ltr;block-progression:tb;writing-mode:lr-tb;text-anchor:start;baseline-shift:baseline;color:#000000;fill:#cccccc;fill-opacity:1;stroke:none;stroke-width:2;marker:none;visibility:visible;display:inline;overflow:visible;enable-background:accumulate;font-family:Sans;-inkscape-font-specification:Sans"
         d="m 20.09375,573.46875 0,457.78125 0,1 1,0 457.8125,0 0,-2 -456.8125,0 0,-456.78125 -2,0 z"
         id="rect3004"
         inkscape:connector-curvature="0" />
      <path
         style="fill:#cccccc;fill-opacity:1;fill-rule:evenodd;stroke:none"
         d="m 467.00228,1031.2649 -8,8 28,-8 -28,-8 8,8 z"
         id="path3008"
         inkscape:connector-curvature="0" />
      <path
         style="fill:#cccccc;fill-opacity:1;fill-rule:evenodd;stroke:none"
         d="m 21.097281,587.6599 8,8 -8,-28 -8,28 8,-8 z"
         id="path3010"
         inkscape:connector-curvature="0" />
      <path
         style="font-size:medium;font-style:normal;font-variant:normal;font-weight:normal;font-stretch:normal;text-indent:0;text-align:start;text-decoration:none;line-height:normal;letter-spacing:normal;word-spacing:normal;text-transform:none;direction:ltr;block-progression:tb;writing-mode:lr-tb;text-anchor:start;baseline-shift:baseline;color:#000000;fill:#cccccc;fill-opacity:1;stroke:none;stroke-width:2;marker:none;visibility:visible;display:inline;overflow:visible;enable-background:accumulate;font-family:Sans;-inkscape-font-specification:Sans"
         d="M 185.71875,865.21875 20.375,1030.5625 l 1.4375,1.4063 165.3125,-165.31255 -1.40625,-1.4375 z"
         id="path3775"
         inkscape:connector-curvature="0" />
      <path
         style="fill:#cccccc;fill-opacity:1;fill-rule:evenodd;stroke:none"
         d="m 176.08598,876.1762 0,11.3137 14.14214,-25.45584 -25.45584,14.14214 11.3137,0 z"
         id="path3018"
         inkscape:connector-curvature="0" />
    </g>
    <path
       inkscape:connector-curvature="0"
       style="fill:none;stroke:#cccccc;stroke-width:2;stroke-linecap:butt;stroke-linejoin:miter;stroke-miterlimit:4;stroke-opacity:1;stroke-dasharray:8,4;stroke-dashoffset:0"
       d="m 105.43745,904.08093 c -0.0201,9.6e-4 -0.0425,-10e-4 -0.0625,0 l 5e-5,0 c -1.50331,0.0805 -2.77785,0.48619 -3.71875,1.28125 -59.77868,50.51221 -78.708042,88.29415 -81.59375,106.93752 m 13.5,9.2812 c 17.871902,-5.2123 56.091764,-23.23439 93.9375,-97.78122 0.0319,-0.0629 0.0642,-0.12428 0.0937,-0.1875"
       id="path3817"
       sodipodi:nodetypes="cccscccc" />
    <path
       transform="matrix(0.3893725,0.16899444,-0.18568194,0.42782137,-461.67908,636.48749)"
       d="m 1432.3963,340.64844 c 0,11.57625 -9.667,20.96066 -21.592,20.96066 -11.9249,0 -21.592,-9.38441 -21.592,-20.96066 0,-11.57626 9.6671,-20.96067 21.592,-20.96067 11.925,0 21.592,9.38441 21.592,20.96067 z"
       sodipodi:ry="20.960665"
       sodipodi:rx="21.59201"
       sodipodi:cy="340.64844"
       sodipodi:cx="1410.8043"
       id="path3838"
       style="fill:none;stroke:#cccccc;stroke-width:4.49510743;stroke-linecap:round;stroke-miterlimit:4;stroke-opacity:1;stroke-dasharray:17.98042971,8.99021486;stroke-dashoffset:0"
       sodipodi:type="arc" />
    <path
       inkscape:connector-curvature="0"
       style="fill:none;stroke:#cccccc;stroke-width:2;stroke-linecap:butt;stroke-linejoin:miter;stroke-miterlimit:4;stroke-opacity:1;stroke-dasharray:8,4;stroke-dashoffset:0"
       d="m 148.9189,899.12723 c 13.11344,-19.80877 24.41419,-60.70793 12.11209,-108.81057 -0.86235,-3.37203 -2.58601,-6.0696 -4.79353,-7.99735 m -18.56691,0.86455 c -1.41536,1.41842 -2.68762,3.21389 -3.73886,5.40517 -19.09744,39.80919 -26.43849,74.09768 -23.97511,98.47149"
       id="path3815"
       sodipodi:nodetypes="csccsc" />
    <path
       sodipodi:type="arc"
       style="fill:none;stroke:#cccccc;stroke-width:1.90156167;stroke-linecap:round;stroke-miterlimit:4;stroke-opacity:1;stroke-dasharray:7.6062467,3.80312335;stroke-dashoffset:0"
       id="path3830"
       sodipodi:cx="1410.8043"
       sodipodi:cy="340.64844"
       sodipodi:rx="21.59201"
       sodipodi:ry="20.960665"
       d="m 1432.3963,340.64844 c 0,11.57625 -9.667,20.96066 -21.592,20.96066 -11.9249,0 -21.592,-9.38441 -21.592,-20.96066 0,-11.57626 9.6671,-20.96067 21.592,-20.96067 11.925,0 21.592,9.38441 21.592,20.96067 z"
       transform="matrix(0.96681034,0.27826195,-0.30412159,1.0566587,-1133.2692,148.16962)" />
    <path
       transform="matrix(0.75838408,0.21827386,-0.23881314,0.82974704,-841.79695,177.06667)"
       d="m 1432.3963,340.64844 c 0,11.57625 -9.667,20.96066 -21.592,20.96066 -11.9249,0 -21.592,-9.38441 -21.592,-20.96066 0,-11.57626 9.6671,-20.96067 21.592,-20.96067 11.925,0 21.592,9.38441 21.592,20.96067 z"
       sodipodi:ry="20.960665"
       sodipodi:rx="21.59201"
       sodipodi:cy="340.64844"
       sodipodi:cx="1410.8043"
       id="path3842"
       style="fill:none;stroke:#cccccc;stroke-width:2.42287477;stroke-linecap:round;stroke-miterlimit:4;stroke-opacity:1;stroke-dasharray:9.69149907,4.84574953;stroke-dashoffset:0"
       sodipodi:type="arc" />
    <rect
       style="fill:none;stroke:#cccccc;stroke-width:2;stroke-linecap:round;stroke-miterlimit:4;stroke-opacity:1;stroke-dasharray:8,4;stroke-dashoffset:0"
       id="rect3856"
       width="101.72631"
       height="16.954386"
       x="4.9699516"
       y="1032.8302"
       transform="matrix(1,-4.975256e-5,4.975256e-5,1,0,0)" />
    <path
       inkscape:connector-curvature="0"
       style="fill:none;stroke:#cccccc;stroke-width:2;stroke-linecap:butt;stroke-linejoin:miter;stroke-miterlimit:4;stroke-opacity:1;stroke-dasharray:8,4;stroke-dashoffset:0"
       d="m 270.21875,973.01843 c 10.8937,-12.5596 34.32838,-47.70049 22.375,-132.75 -0.1193,-0.84891 -0.39607,-1.62114 -0.8125,-2.3125 m -29.0625,-0.125 c -0.56521,0.63651 -0.98958,1.32143 -1.1875,2.0625 C 241.53271,914.7755 248.014,955.7438 256.3125,971.79968"
       id="path3836"
       sodipodi:nodetypes="ccccsc" />
    <path
       sodipodi:type="arc"
       style="fill:none;stroke:#cccccc;stroke-width:4.97764181;stroke-linecap:round;stroke-miterlimit:4;stroke-opacity:1;stroke-dasharray:19.91056724,9.95528362;stroke-dashoffset:0"
       id="path3840"
       sodipodi:cx="1410.8043"
       sodipodi:cy="340.64844"
       sodipodi:rx="21.59201"
       sodipodi:ry="20.960665"
       d="m 1432.3963,340.64844 c 0,11.57625 -9.667,20.96066 -21.592,20.96066 -11.9249,0 -21.592,-9.38441 -21.592,-20.96066 0,-11.57626 9.6671,-20.96067 21.592,-20.96067 11.925,0 21.592,9.38441 21.592,20.96067 z"
       transform="matrix(0.38314106,-0.01160291,0.01274864,0.42097461,-281.97057,850.0827)" />
    <rect
       y="988.185"
       x="233.70895"
       height="15.311031"
       width="98.069878"
       id="rect3858"
       style="fill:none;stroke:#cccccc;stroke-width:2.00000168;stroke-linecap:round;stroke-miterlimit:4;stroke-opacity:1;stroke-dasharray:8.00000672,4.00000336;stroke-dashoffset:0"
       transform="matrix(0.99999689,0.00249445,-0.00432796,0.99999063,0,0)" />
    <path
       transform="matrix(0.84943004,-0.32232812,0.35228297,0.92836992,-1041.6225,962.39263)"
       d="m 1432.3963,340.64844 c 0,11.57625 -9.667,20.96066 -21.592,20.96066 -11.9249,0 -21.592,-9.38441 -21.592,-20.96066 0,-11.57626 9.6671,-20.96067 21.592,-20.96067 11.925,0 21.592,9.38441 21.592,20.96067 z"
       sodipodi:ry="20.960665"
       sodipodi:rx="21.59201"
       sodipodi:cy="340.64844"
       sodipodi:cx="1410.8043"
       id="path3832"
       style="fill:none;stroke:#cccccc;stroke-width:2.10568783;stroke-linecap:round;stroke-miterlimit:4;stroke-opacity:1;stroke-dasharray:8.42275133,4.21137566;stroke-dashoffset:0"
       sodipodi:type="arc" />
    <path
       inkscape:connector-curvature="0"
       style="fill:none;stroke:#cccccc;stroke-width:2;stroke-linecap:butt;stroke-linejoin:miter;stroke-miterlimit:4;stroke-opacity:1;stroke-dasharray:8,4;stroke-dashoffset:0"
       d="m 281.86747,804.1727 c -13.48467,-17.38965 -43.40616,-39.96979 -87.91782,-45.44776 -0.71068,-0.0875 -1.40431,-0.12471 -2.06539,-0.10282 l 10e-5,3.9e-4 m -7.16688,21.7491 c -0.0558,0.0214 -0.11031,0.0423 -0.16617,0.0626 23.14575,34.81691 55.64137,50.96811 77.11488,56.19636"
       id="path3834"
       sodipodi:nodetypes="ccccccc" />
    <path
       sodipodi:type="arc"
       style="fill:none;stroke:#cccccc;stroke-width:2.88188887;stroke-linecap:round;stroke-miterlimit:4;stroke-opacity:1;stroke-dasharray:11.5275555,5.76377775;stroke-dashoffset:0"
       id="path3862"
       sodipodi:cx="1410.8043"
       sodipodi:cy="340.64844"
       sodipodi:rx="21.59201"
       sodipodi:ry="20.960665"
       d="m 1432.3963,340.64844 c 0,11.57625 -9.667,20.96066 -21.592,20.96066 -11.9249,0 -21.592,-9.38441 -21.592,-20.96066 0,-11.57626 9.6671,-20.96067 21.592,-20.96067 11.925,0 21.592,9.38441 21.592,20.96067 z"
       transform="matrix(0.63700938,-0.24172213,0.25078811,0.66090093,-804.66757,882.41084)" />
    <g
       id="g3962"
       transform="matrix(0.99413807,-0.10811799,0.10811799,0.99413807,-110.79616,7.4962015)">
      <path
         sodipodi:nodetypes="cccc"
         inkscape:connector-curvature="0"
         id="path4773"
         d="M 179.83572,766.50371 117.41335,871.34548 M 110.81747,882.42362 20,1032.3622"
         style="fill:none;stroke:#000000;stroke-width:4;stroke-linecap:round;stroke-miterlimit:4;stroke-opacity:1;stroke-dasharray:none;stroke-dashoffset:0;marker-start:none" />
      <path
         transform="matrix(0.86963979,0,0,0.86279223,57.915938,586.51121)"
         d="m 211.42857,168.21428 c 0,25.05006 -20.14718,45.35714 -45,45.35714 -24.85281,0 -45,-20.30708 -45,-45.35714 0,-25.05006 20.14719,-45.35714 45,-45.35714 24.85282,0 45,20.30708 45,45.35714 z"
         sodipodi:ry="45.357143"
         sodipodi:rx="45"
         sodipodi:cy="168.21428"
         sodipodi:cx="166.42857"
         id="path4959"
         style="fill:#ffffff;fill-opacity:1;stroke:#000000;stroke-width:4.61782169;stroke-miterlimit:4;stroke-opacity:1;stroke-dasharray:none;stroke-dashoffset:0"
         sodipodi:type="arc" />
      <path
         inkscape:connector-curvature="0"
         id="path4961"
         d="m 202.33036,692.50951 0,39.03125 39.4375,0 c -0.0512,-21.56935 -17.54365,-39.03125 -39.125,-39.03125 -0.10543,0 -0.20727,-8.3e-4 -0.3125,0 z m 0,39.03125 -38.8125,0 c -7e-5,0.0316 0,0.0621 0,0.0937 0,21.50757 17.34498,38.98647 38.8125,39.15625 l 0,-39.25 z"
         style="fill:#000000;fill-opacity:1;stroke:none" />
      <path
         transform="matrix(0.85833439,0.51309071,-0.51309071,0.85833439,0,0)"
         sodipodi:nodetypes="cccc"
         inkscape:connector-curvature="0"
         id="rect4974"
         d="m 540.42902,795.98233 0,-107.43143 14.88513,0 0,107.43143"
         style="fill:none;stroke:#000000;stroke-width:4;stroke-miterlimit:4;stroke-opacity:1" />
    </g>
    <text
       xml:space="preserve"
       style="font-size:40px;font-style:normal;font-weight:normal;line-height:125%;letter-spacing:0px;word-spacing:0px;fill:#000000;fill-opacity:1;stroke:none;font-family:Times New Roman;-inkscape-font-specification:Times New Roman;font-stretch:normal;font-variant:normal"
       x="199.50513"
       y="663.9585"
       id="text4044"
       sodipodi:linespacing="125%"><tspan
         sodipodi:role="line"
         id="tspan4046"
         x="199.50513"
         y="663.9585"
         style="-inkscape-font-specification:Times New Roman;font-family:Times New Roman;font-weight:normal;font-style:normal;font-stretch:normal;font-variant:normal">c</tspan></text>
    <text
       xml:space="preserve"
       style="font-size:28px;font-style:normal;font-weight:normal;line-height:125%;letter-spacing:0px;word-spacing:0px;fill:#b3b3b3;fill-opacity:1;stroke:none;font-family:Times New Roman;-inkscape-font-specification:Times New Roman;font-stretch:normal;font-variant:normal"
       x="462.64984"
       y="1020.5424"
       id="text4048"
       sodipodi:linespacing="125%"><tspan
         sodipodi:role="line"
         id="tspan4050"
         x="462.64984"
         y="1020.5424"
         style="font-size:28px;fill:#b3b3b3;font-family:Times New Roman;-inkscape-font-specification:Times New Roman;font-weight:normal;font-style:normal;font-stretch:normal;font-variant:normal">x</tspan></text>
    <text
       xml:space="preserve"
       style="font-size:28px;font-style:normal;font-weight:normal;line-height:125%;letter-spacing:0px;word-spacing:0px;fill:#b3b3b3;fill-opacity:1;stroke:none;font-family:Times New Roman;-inkscape-font-specification:Times New Roman;font-stretch:normal;font-variant:normal"
       x="31.31473"
       y="589.71234"
       id="text4052"
       sodipodi:linespacing="125%"><tspan
         sodipodi:role="line"
         id="tspan4054"
         x="31.31473"
         y="589.71234"
         style="font-size:28px;font-style:normal;font-variant:normal;font-weight:normal;font-stretch:normal;fill:#b3b3b3;font-family:Times New Roman;-inkscape-font-specification:Times New Roman">z</tspan></text>
    <text
       xml:space="preserve"
       style="font-size:28px;font-style:normal;font-weight:normal;line-height:125%;letter-spacing:0px;word-spacing:0px;fill:#b3b3b3;fill-opacity:1;stroke:none;font-family:Times New Roman;-inkscape-font-specification:Times New Roman;font-stretch:normal;font-variant:normal"
       x="184.35283"
       y="891.24286"
       id="text4056"
       sodipodi:linespacing="125%"><tspan
         sodipodi:role="line"
         id="tspan4058"
         x="184.35283"
         y="891.24286"
         style="font-size:28px;fill:#b3b3b3;font-family:Times New Roman;-inkscape-font-specification:Times New Roman;font-weight:normal;font-style:normal;font-stretch:normal;font-variant:normal">y</tspan></text>
    <g
       id="g7158">
      <path
         style="font-size:medium;font-style:normal;font-variant:normal;font-weight:normal;font-stretch:normal;text-indent:0;text-align:start;text-decoration:none;line-height:normal;letter-spacing:normal;word-spacing:normal;text-transform:none;direction:ltr;block-progression:tb;writing-mode:lr-tb;text-anchor:start;baseline-shift:baseline;color:#000000;fill:#000000;fill-opacity:1;stroke:none;stroke-width:2;marker:none;visibility:visible;display:inline;overflow:visible;enable-background:accumulate;font-family:Sans;-inkscape-font-specification:Sans"
         d="m 24.59375,999.23718 c -6.871337,-0.69613 -14.6305387,1.83992 -22.25,8.96872 l 1.375,1.4375 c 7.301014,-6.8309 14.413462,-9.0699 20.65625,-8.4375 6.242788,0.6325 11.681612,4.1888 15.46875,9.2188 3.787138,5.0299 5.909508,11.517 5.5,17.9375 -0.409508,6.4205 -3.304073,12.7736 -9.59375,17.6562 l 1.21875,1.5625 c 6.722218,-5.2184 9.932448,-12.1552 10.375,-19.0937 0.442552,-6.9386 -1.836775,-13.8763 -5.90625,-19.2813 -4.069475,-5.4049 -9.972413,-9.27259 -16.84375,-9.96872 z"
         id="path4060"
         inkscape:connector-curvature="0" />
      <path
         d="m 46.141269,1044.1532 -12.739325,5.7319 5.991095,-12.6195 c 0.495909,3.4991 3.230031,6.2725 6.74823,6.8876 z"
         style="fill-rule:evenodd;stroke-width:0.625;stroke-linejoin:round"
         id="path7154"
         inkscape:connector-curvature="0" />
    </g>
    <text
       xml:space="preserve"
       style="font-size:40px;font-style:normal;font-variant:normal;font-weight:normal;font-stretch:normal;line-height:125%;letter-spacing:0px;word-spacing:0px;fill:#000000;fill-opacity:1;stroke:none;font-family:Times New Roman;-inkscape-font-specification:Times New Roman"
       x="47.32143"
       y="1021.6479"
       id="text7162"
       sodipodi:linespacing="125%"><tspan
         sodipodi:role="line"
         id="tspan7164"
         x="47.32143"
         y="1021.6479">τ</tspan></text>
    <path
       style="fill:none;stroke:#000000;stroke-width:2;stroke-linecap:butt;stroke-linejoin:miter;stroke-miterlimit:4;stroke-opacity:1;stroke-dasharray:none;marker-start:none;marker-end:url(#Arrow2Mend)"
       d="M 64.144686,894.2733 94.449257,826.59308"
       id="path7166"
       inkscape:connector-curvature="0"
       sodipodi:nodetypes="cc" />
    <text
       xml:space="preserve"
       style="font-size:40px;font-style:normal;font-variant:normal;font-weight:normal;font-stretch:normal;line-height:125%;letter-spacing:0px;word-spacing:0px;fill:#000000;fill-opacity:1;stroke:none;font-family:Times New Roman;-inkscape-font-specification:Times New Roman"
       x="55.558392"
       y="860.93829"
       id="text7552"
       sodipodi:linespacing="125%"><tspan
         sodipodi:role="line"
         id="tspan7554"
         x="55.558392"
         y="860.93829">f</tspan></text>
  </g>
  <g
     inkscape:groupmode="layer"
     id="layer2"
     inkscape:label="Layer"
     sodipodi:insensitive="true" />
</svg>
